# xmcd
#
# Track frame offsets: 
#        150
#        21987
#        40837
#        62624
#
# Disc length: 1084 seconds
#
# Revision: 3
# Processed by: cddbd v1.5.2PL0 Copyright (c) Steve Scherf et al.
# Submitted via: ExactAudioCopyFreeDBPlugin 1.0
#
DISCID=2c043a04
DTITLE=MYTH and ROID - STYX HELIX
DYEAR=2016
DGENRE=Anime
TTITLE0=STYX HELIX
TTITLE1=STRAIGHT BET
TTITLE2=STYX HELIX (Instrumental)
TTITLE3=STRAIGHT BET (Instrumental)
EXTD=YEAR: 2004
EXTT0=
EXTT1=
EXTT2=
EXTT3=
PLAYORDER=
